<?xml version="1.0" standalone="no"?><svg xmlns="http://www.w3.org/2000/svg" viewBox="0 0 1440 320"><path fill="#0099ff" fill-opacity="1" d="M0,32L30,58.7C60,85,120,139,180,165.3C240,192,300,192,360,208C420,224,480,256,540,240C600,224,660,160,720,160C780,160,840,224,900,240C960,256,1020,224,1080,224C1140,224,1200,256,1260,245.3C1320,235,1380,181,1410,154.7L1440,128L1440,320L1410,320C1380,320,1320,320,1260,320C1200,320,1140,320,1080,320C1020,320,960,320,900,320C840,320,780,320,720,320C660,320,600,320,540,320C480,320,420,320,360,320C300,320,240,320,180,320C120,320,60,320,30,320L0,320Z"></path></svg>